<svg xmlns="http://www.w3.org/2000/svg" viewBox="0 0 1642.29 1679.43"><defs><style>.cls-1{fill:#419cd7;}.cls-2{fill:#aedae6;}.cls-3{fill:#fff;}.cls-4{fill:#221714;}.cls-5{fill:#e0a2b5;}</style></defs><g id="レイヤー_3" data-name="レイヤー 3"><path class="cls-1" d="M1099.07,151.86c17.62-43.07,2.48-138.83,2.48-138.83s-57,35.05-122.3,67.89C929.12,60.48,876.07,49.51,821.17,49.51c-55.48,0-109.07,11.2-159.67,32.06-64.92-32.06-121.41-66.1-121.41-66.1s-13.86,92.8,2.83,136.67C374.93,286,261.79,537.27,261.79,825.22c0,428.39,250.45,775.65,559.38,775.65s559.35-347.26,559.35-775.65C1380.52,537.07,1267.24,285.63,1099.07,151.86Z"/><path class="cls-2" d="M1226,957.45c0,310-181.26,561.41-404.86,561.41S416.27,1267.49,416.27,957.45,597.54,396,821.14,396,1226,647.36,1226,957.45Z"/><path class="cls-3" d="M995.9,241.1A247.59,247.59,0,0,0,821.17,313,247.69,247.69,0,0,0,646.45,241.1C509.18,241.1,398,352.33,398,489.55S509.18,738,646.45,738a247.58,247.58,0,0,0,174.72-71.91A247.48,247.48,0,0,0,995.9,738c137.2,0,248.46-111.22,248.46-248.45S1133.1,241.1,995.9,241.1Z"/><path class="cls-1" d="M748.22,489.55A145.92,145.92,0,1,1,602.3,343.64,145.91,145.91,0,0,1,748.22,489.55Z"/><path class="cls-1" d="M1185.92,489.55A145.92,145.92,0,1,1,1040,343.64a145.91,145.91,0,0,1,145.91,145.91Z"/><path class="cls-4" d="M602.3,579.49a89.94,89.94,0,1,1,89.91-89.94,90,90,0,0,1-89.91,89.94Z"/><path class="cls-4" d="M1040,579.49a89.94,89.94,0,1,1,89.94-89.94A90,90,0,0,1,1040,579.49Z"/><polygon class="cls-5" points="905.36 583.12 821.17 706.92 736.99 583.12 905.36 583.12 905.36 583.12 905.36 583.12"/><path class="cls-1" d="M515.68,1014.07c55.93,206.43-40.86,412.29-40.86,412.29S287.39,1297.5,231.5,1091s-37.61-391,40.86-412.28,187.43,128.85,243.32,335.31Z"/><path class="cls-1" d="M1126.59,1014.07c-55.92,206.43,40.9,412.29,40.9,412.29S1354.92,1297.5,1410.81,1091s37.61-391-40.89-412.28-187.4,128.85-243.33,335.31Z"/><path class="cls-3" d="M616,833.28c1.45.66,3,1.54,4.62,2.1a7.71,7.71,0,0,0,5.16.18c2.89-1,4.31-2.3,6.4-3.83a35.08,35.08,0,0,1,10.35-5.18,40.61,40.61,0,0,1,32.37,2.57A46.16,46.16,0,0,1,696.43,854c7.8,20.86,4.29,44.68-8.39,63.16s-34.54,31.61-63.46,31.11c-34.58-.59-54.07-18-63.6-38.09-6.59-13.85-10-31.68-6.3-46.85,3.48-14.26,14.57-29.18,29-33.51a39.47,39.47,0,0,1,9.08-1.65C604.53,827.53,614.23,832.47,616,833.28Z"/><path class="cls-3" d="M701.31,1026.7a48,48,0,0,0,4.63,2.1,7.75,7.75,0,0,0,5.15.19c2.89-1,4.32-2.3,6.41-3.84a35.23,35.23,0,0,1,10.35-5.17,40.61,40.61,0,0,1,32.37,2.56,46.28,46.28,0,0,1,21.54,24.83c7.79,20.87,4.28,44.69-8.4,63.17s-34.54,31.61-63.45,31.11c-34.59-.6-54.08-18-63.61-38.09-6.58-13.86-10-31.69-6.29-46.85,3.47-14.26,14.57-29.18,29-33.51a38.94,38.94,0,0,1,9.08-1.65C689.85,1021,699.56,1025.89,701.31,1026.7Z"/><path class="cls-3" d="M815.46,833.28c1.46.66,3,1.54,4.63,2.1a7.69,7.69,0,0,0,5.15.18c2.89-1,4.32-2.3,6.41-3.83A34.94,34.94,0,0,1,842,826.55a40.62,40.62,0,0,1,32.37,2.57A46.24,46.24,0,0,1,895.91,854c7.79,20.86,4.28,44.68-8.4,63.16S853,948.72,824.06,948.22c-34.59-.59-54.08-18-63.61-38.09-6.58-13.85-10-31.68-6.29-46.85,3.47-14.26,14.57-29.18,29-33.51a39.37,39.37,0,0,1,9.08-1.65C804,827.53,813.71,832.47,815.46,833.28Z"/><path class="cls-3" d="M934,1026.7a47.82,47.82,0,0,0,4.62,2.1,7.78,7.78,0,0,0,5.16.19c2.89-1,4.31-2.3,6.4-3.84a35.37,35.37,0,0,1,10.35-5.17,40.61,40.61,0,0,1,32.37,2.56,46.19,46.19,0,0,1,21.54,24.83c7.8,20.87,4.29,44.69-8.4,63.17s-34.53,31.61-63.45,31.11c-34.58-.6-54.07-18-63.6-38.09-6.59-13.86-10-31.69-6.3-46.85,3.48-14.26,14.57-29.18,29-33.51a38.94,38.94,0,0,1,9.08-1.65C922.58,1021,932.28,1025.89,934,1026.7Z"/><path class="cls-3" d="M1014.94,833.28c1.46.66,3,1.54,4.63,2.1a7.68,7.68,0,0,0,5.15.18c2.89-1,4.32-2.3,6.41-3.83a34.85,34.85,0,0,1,10.34-5.18,40.61,40.61,0,0,1,32.37,2.57A46.22,46.22,0,0,1,1095.39,854c7.79,20.86,4.28,44.68-8.4,63.16s-34.54,31.61-63.45,31.11c-34.59-.59-54.08-18-63.61-38.09-6.58-13.85-10-31.68-6.29-46.85,3.47-14.26,14.57-29.18,29-33.51a39.56,39.56,0,0,1,9.08-1.65C1003.48,827.53,1013.18,832.47,1014.94,833.28Z"/><path class="cls-5" d="M683.93,1582.94A106.75,106.75,0,0,0,582,1659.4l24,7a81.68,81.68,0,0,1,65.47-57.46v54h25v-54a81.67,81.67,0,0,1,65.46,57.46l24-7A106.74,106.74,0,0,0,683.93,1582.94Z"/><path class="cls-5" d="M954.32,1582.94a106.76,106.76,0,0,0-102,76.46l24,7a81.68,81.68,0,0,1,65.47-57.46v54h25v-54a81.68,81.68,0,0,1,65.47,57.46l24-7A106.74,106.74,0,0,0,954.32,1582.94Z"/></g></svg>