<svg xmlns="http://www.w3.org/2000/svg" viewBox="0 0 855.95 650.86"><defs><style>.cls-1{fill:#007eb5;}.cls-2{fill:red;}.cls-3{fill:none;stroke:red;stroke-miterlimit:10;stroke-width:0.25px;}</style></defs><g id="レイヤー_1" data-name="レイヤー 1"><polygon class="cls-1" points="122.87 241.02 42.57 101.59 203.18 177.27 196.08 80.3 290.69 137.06 293.05 7.09 389.91 132.33 427.75 63.86 463.11 137.06 574.16 0 571.8 148.89 682.96 49.67 659.31 174.91 786.91 115.78 727.78 233.92 843.56 226.83 751.43 314.34 855.95 388.11 739.38 417.28 834.33 549.27 668.88 492.62 706.72 589.48 605.13 525.62 588.58 601.3 517.63 544.54 503.43 650.86 430.12 541.16 385.18 604.91 354.43 526.97 285.95 645.12 274.13 538.8 203.18 585.99 198.44 519.88 56.76 595.45 144.16 477.98 0 477.31 103.95 380.45 30.75 344.97 94.49 319.07 28.38 226.83 122.87 241.02"/></g><g id="レイヤー_2" data-name="レイヤー 2"><path class="cls-2" d="M174.29,340.83l41.51-55.6h26.79L220.7,394.85H195.21l12.42-62-32,43.85H161.06L147,333.37l-12.26,61.48H109.27l21.89-109.62h23.69Z"/><path class="cls-2" d="M269.06,394.85H241.93l21.9-109.62H291Z"/><path class="cls-2" d="M364.8,315.57c-2.94-7.31-8-10-18.13-10-10.3,0-15,4.93-15,11.12,0,5.41,5.39,9.06,17.48,12.55,19.44,5.72,27.94,14.94,27.94,29.87,0,22.4-16.5,37.34-46.89,37.34-20.59,0-32.85-5.72-40.69-18.11l22.22-13.67c4.25,6.84,10.46,9.85,20.59,9.85,11.93,0,16.67-5.24,16.67-11.28,0-5.24-4.58-8.42-18.47-13-16.34-5.41-26.63-14.94-26.63-30.19,0-19.38,13.07-36.38,46.89-36.38,18,0,30.56,6.51,36.28,18.59Z"/><path class="cls-2" d="M459.08,315.57c-2.94-7.31-8-10-18.14-10-10.29,0-15,4.93-15,11.12,0,5.41,5.39,9.06,17.48,12.55,19.45,5.72,27.94,14.94,27.94,29.87,0,22.4-16.5,37.34-46.89,37.34-20.59,0-32.84-5.72-40.69-18.11L406,364.66c4.24,6.84,10.45,9.85,20.58,9.85,11.93,0,16.67-5.24,16.67-11.28,0-5.24-4.58-8.42-18.46-13-16.34-5.41-26.64-14.94-26.64-30.19,0-19.38,13.08-36.38,46.9-36.38,18,0,30.55,6.51,36.27,18.59Z"/><path class="cls-2" d="M507.6,394.85H480.48l21.9-109.62H529.5Z"/><path class="cls-2" d="M624.59,348.62c-6.7,33.2-25,47.82-53.92,47.82-25.65,0-41-17.95-35-47.82l3.43-17.16c6.53-33,25-47.82,54.08-47.82,25.65,0,40.85,17.47,34.8,47.82Zm-61.76,0c-3.6,17.95.82,25.89,12.09,25.89s19-7.94,22.55-25.89l3.43-17.16c3.59-17.95-.82-25.9-12.09-25.9s-19,7.95-22.55,25.9Z"/><path class="cls-2" d="M743.21,285.23l-21.9,109.62H699.75l-29.58-61.8-12.25,61.8H632.43l21.89-109.62h21.24l29.74,62.59,12.42-62.59Z"/><path class="cls-3" d="M182.69,340.83l41.51-55.6H251L229.1,394.85H203.61l12.42-62-32,43.85H169.46l-14.05-43.37-12.26,61.48H117.67l21.89-109.62h23.69Z"/><path class="cls-3" d="M277.46,394.85H250.33l21.9-109.62h27.12Z"/><path class="cls-3" d="M373.2,315.57c-2.94-7.31-8-10-18.13-10-10.3,0-15,4.93-15,11.12,0,5.41,5.39,9.06,17.48,12.55C377,335,385.46,344.17,385.46,359.1c0,22.4-16.5,37.34-46.9,37.34-20.58,0-32.84-5.72-40.68-18.11l22.22-13.67c4.25,6.84,10.46,9.85,20.59,9.85,11.93,0,16.66-5.24,16.66-11.28,0-5.24-4.57-8.42-18.46-13-16.34-5.41-26.63-14.94-26.63-30.19,0-19.38,13.07-36.38,46.89-36.38,18,0,30.56,6.51,36.27,18.59Z"/><path class="cls-3" d="M467.48,315.57c-2.94-7.31-8-10-18.14-10-10.29,0-15,4.93-15,11.12,0,5.41,5.39,9.06,17.48,12.55,19.45,5.72,27.94,14.94,27.94,29.87,0,22.4-16.5,37.34-46.89,37.34-20.59,0-32.84-5.72-40.69-18.11l22.23-13.67c4.24,6.84,10.45,9.85,20.58,9.85,11.93,0,16.67-5.24,16.67-11.28,0-5.24-4.58-8.42-18.46-13-16.34-5.41-26.64-14.94-26.64-30.19,0-19.38,13.07-36.38,46.9-36.38,18,0,30.55,6.51,36.27,18.59Z"/><path class="cls-3" d="M516,394.85H488.88l21.89-109.62H537.9Z"/><path class="cls-3" d="M633,348.62c-6.7,33.2-25,47.82-53.92,47.82-25.65,0-41-17.95-35-47.82l3.43-17.16c6.53-33,25-47.82,54.08-47.82,25.65,0,40.85,17.47,34.8,47.82Zm-61.76,0c-3.6,17.95.81,25.89,12.09,25.89s18.95-7.94,22.55-25.89l3.43-17.16c3.59-17.95-.82-25.9-12.09-25.9s-19,7.95-22.55,25.9Z"/><path class="cls-3" d="M751.61,285.23l-21.9,109.62H708.15l-29.58-61.8-12.25,61.8H640.83l21.89-109.62H684l29.74,62.59,12.42-62.59Z"/></g></svg>