<svg xmlns="http://www.w3.org/2000/svg" viewBox="0 0 1520.62 1047.57"><defs><style>.cls-1{fill:#419cd7;}.cls-2{fill:#fff;}.cls-3{fill:#231815;}.cls-4{fill:#e38158;}</style></defs><g id="レイヤー_4" data-name="レイヤー 4"><rect class="cls-1" width="1520.62" height="1047.57"/><path class="cls-2" d="M690.83,367.76v33.68q-19.55-3.48-36.17-5.22a363.09,363.09,0,0,0-37.48-1.73H555.7V360.38h61.48A398.21,398.21,0,0,1,690.83,367.76Zm-3.91-128.18v33.67q-19.56-3.47-36.17-5.1t-37.7-1.85H559.82V232.19h53.23A401.94,401.94,0,0,1,686.92,239.58Zm-6.73,62.57v33.68q-19.56-3.48-36.18-5.22a365.37,365.37,0,0,0-37.69-1.74H565V294.76h41.28A378.38,378.38,0,0,1,680.19,302.15Z"/><path class="cls-2" d="M864.2,393.83H727.55v-159H864.2ZM828.57,268.91H763v90.81h65.61Z"/><path class="cls-2" d="M939.92,394.72a21.69,21.69,0,0,1-6.2-15.86q0-9.56,6.3-15.64a23.73,23.73,0,0,1,31.72,0q6.3,6.09,6.3,15.64A21.54,21.54,0,0,1,955.88,401Q946.12,401,939.92,394.72Zm2.49-54.1L935.9,272l-1.31-36.07h42.59L975.87,272l-6.52,68.65Z"/><path class="cls-2" d="M556.1,173.27V161.94h18.4l-.65-9.67H556.1v-11h17l-.65-9.82H584l.73,9.82h19.77v11H585.4l.65,9.67h18.4v11.33H586.91l1.3,18.62H576.59l-1.3-18.62Z"/><path class="cls-2" d="M617.51,170.53v-8.95h26.92v-8.52H616v-9.59h38.32V189H616v-9.6h28.43v-8.88Z"/><path class="cls-2" d="M711,188.21H665.58V135.38H711Zm-11.83-41.5h-21.8v30.17h21.8Z"/><path class="cls-2" d="M721.87,173.27V161.94h18.4l-.65-9.67H721.87v-11h17l-.65-9.82h11.55l.72,9.82h19.77v11H751.17l.65,9.67h18.4v11.33H752.69l1.3,18.62H742.37l-1.3-18.62Z"/><path class="cls-2" d="M781.84,170.53v-8.95h26.92v-8.52H780.33v-9.59h38.32V189H780.33v-9.6h28.43v-8.88Z"/><path class="cls-2" d="M875.3,188.21H829.91V135.38H875.3Zm-11.83-41.5h-21.8v30.17h21.8Z"/><path class="cls-2" d="M892.69,131.63h10.83V171.9q0,4.26,1.41,6.28a5.48,5.48,0,0,0,4.36,2.24,20.26,20.26,0,0,0,8.05-1.84,63.25,63.25,0,0,0,8.3-4.41q4.08-2.55,9.42-6.67v13.21A75,75,0,0,1,927,186.3a49.22,49.22,0,0,1-8.45,3.86,31.84,31.84,0,0,1-9.89,1.8q-8.45-.14-12.19-4.94t-3.76-13.31Z"/><path class="cls-2" d="M941.12,134.88h47.34v11a30,30,0,0,0-12.37,3.79,34.92,34.92,0,0,0-8.74,7.07,20.22,20.22,0,0,0-4.51,7.69q-1.29,4.91.22,7.83a9.41,9.41,0,0,0,4.22,4.26,13.46,13.46,0,0,0,5,1.48q2.88.14,5.55,0c1.78-.1,3.36-.23,4.73-.4l2.13-.25v11.54a60.48,60.48,0,0,1-7,.54q-3,0-6.28-.18a28.51,28.51,0,0,1-7.07-1.4A22,22,0,0,1,957,184a17.07,17.07,0,0,1-5-7.14,22.61,22.61,0,0,1-1-11,26.8,26.8,0,0,1,2.78-8.3,30.51,30.51,0,0,1,4.33-6.25,43,43,0,0,1,4-3.93,11.87,11.87,0,0,1,1.81-1.37H941.12Z"/><path class="cls-2" d="M39.33,749.18c.41-39.12,5.62-72.65,11.79-93.67C66.23,604,68.87,634.18,73.78,601.94c1.47-9.67,4.6-29.69,9.37-33.42,5.71-4.45,18.12,2,37.42,13.9,34.51,21.28,42.64,30.13,56.65,38.48,37.42,22.3,79.15,18.65,109,16,39.62-3.47,42.49-13.25,70.12-16.09,1-8,2.72-17.76,4.78-31.11,4-26.2,5.95-52.69,9.47-79,11.61-86.49,9.2-123.79,30-175.32,4-9.95,16.13-38.35,32.37-38.7a31,31,0,0,1,19,7.11,30.6,30.6,0,0,1,7.9,10.26c13.72,28,7.89,63.18,7.89,63.18s-3.13,19-9.47,99.51c-6,76.57-4,99.31,1.79,166.19.15,1.77.73,4.75,1.32,8.36a290.71,290.71,0,0,1,59,51.85c13.23,15.88,72.33,86.78,51.31,168.9-10.61,41.43-36.88,67.27-48.11,78-49.81,47.78-112,53-143.24,55.59-78.12,6.52-137.39-20.45-193.48-46-48.29-22-71.68-41.47-84.45-53.45-18.16-17-44.2-42-56.66-82.31C38.77,801.47,39,783.55,39.33,749.18Z"/><ellipse class="cls-3" cx="441.83" cy="325.46" rx="3.65" ry="3.57"/><ellipse class="cls-3" cx="452.22" cy="324.77" rx="3.65" ry="3.57"/><path class="cls-4" d="M441.92,339.4c2.21-4.29,7.3-6.09,8.45-6.47,2.23-.73,4.6-1.05,9.73-.81,2.18.1,11.17.6,24.62,4.74,0,0,8.57,2.64,10,5.89a2.84,2.84,0,0,1,.25,1.89.89.89,0,0,1,.07.19c.06.41-.36.85-1.16,1.27a6.77,6.77,0,0,1-1.59.81,14.29,14.29,0,0,1-3.11.7,44.27,44.27,0,0,1-4.76.74q-1.72.18-3.3.24c-9,.86-29.92.7-34.78-.76-2.18-.65-4.11-1.51-5-3.12C440.23,342.7,441.33,340.55,441.92,339.4Z"/><path class="cls-2" d="M1493.85,749.18c-.42-39.12-5.63-72.65-11.79-93.67-15.11-51.51-17.76-21.33-22.67-53.57-1.47-9.67-4.6-29.69-9.37-33.42-5.71-4.45-18.12,2-37.41,13.9C1378.09,603.7,1370,612.55,1356,620.9c-37.41,22.3-79.15,18.65-109,16-39.61-3.47-42.49-13.25-70.12-16.09-1-8-2.71-17.76-4.77-31.11-4-26.2-6-52.69-9.48-79-11.6-86.49-9.2-123.79-30-175.32-4-9.95-16.14-38.35-32.38-38.7a30.91,30.91,0,0,0-19,7.11,30.6,30.6,0,0,0-7.9,10.26c-13.72,28-7.9,63.18-7.9,63.18s3.14,19,9.48,99.51c6,76.57,3.95,99.31-1.79,166.19-.15,1.77-.74,4.75-1.32,8.36a290.08,290.08,0,0,0-59,51.85c-13.24,15.88-72.34,86.78-51.31,168.9,10.6,41.43,36.87,67.27,48.1,78,49.82,47.78,112,53,143.24,55.59,78.13,6.52,137.39-20.45,193.49-46,48.29-22,71.67-41.47,84.45-53.45,18.16-17,44.2-42,56.65-82.31C1494.4,801.47,1494.21,783.55,1493.85,749.18Z"/><ellipse class="cls-3" cx="1091.34" cy="325.46" rx="3.65" ry="3.57"/><ellipse class="cls-3" cx="1080.95" cy="324.77" rx="3.65" ry="3.57"/><path class="cls-4" d="M1091.25,339.4c-2.21-4.29-7.29-6.09-8.44-6.47-2.24-.73-4.6-1.05-9.74-.81-2.17.1-11.17.6-24.62,4.74,0,0-8.56,2.64-10,5.89a2.85,2.85,0,0,0-.24,1.89.56.56,0,0,0-.07.19c-.07.41.36.85,1.16,1.27a6.77,6.77,0,0,0,1.59.81,14.06,14.06,0,0,0,3.1.7,44.47,44.47,0,0,0,4.77.74c1.14.12,2.25.2,3.29.24,9,.86,29.92.7,34.78-.76,2.18-.65,4.12-1.51,5-3.12C1093,342.7,1091.84,340.55,1091.25,339.4Z"/></g></svg>