<svg xmlns="http://www.w3.org/2000/svg" viewBox="0 0 375 375"><defs><style>.cls-1{fill:#419cd7;}.cls-2{font-size:84.71px;}.cls-10,.cls-2,.cls-5{fill:#fff;}.cls-2,.cls-5{font-family:Corporate-Logo-Bold-ver2, Corporate Logo ver2;}.cls-3{letter-spacing:0.04em;}.cls-4{letter-spacing:-0.16em;}.cls-5{font-size:28.14px;}.cls-6{letter-spacing:0.06em;}.cls-7{letter-spacing:0.02em;}.cls-8{letter-spacing:0.04em;}.cls-9{letter-spacing:-0.04em;}.cls-11{fill:#231815;}.cls-12{fill:#e38158;}</style></defs><g id="レイヤー_2" data-name="レイヤー 2"><rect class="cls-1" width="375" height="375"/><text class="cls-2" transform="translate(100.45 150.08)"><tspan class="cls-3">ミ</tspan><tspan class="cls-4" x="65.23" y="0">ロ</tspan><tspan x="118.51" y="5.26">！</tspan></text><text class="cls-5" transform="translate(104.05 72.23)"><tspan class="cls-6">キ</tspan><tspan x="23.21" y="0">ョ</tspan><tspan class="cls-7" x="41.87" y="0">ロ</tspan><tspan class="cls-8" x="64.63" y="0">キ</tspan><tspan x="87.29" y="0">ョ</tspan><tspan class="cls-6" x="105.94" y="0">ロ</tspan><tspan class="cls-9" x="129.83" y="0">し</tspan><tspan x="149.87" y="0">て</tspan></text></g><g id="レイヤー_4" data-name="レイヤー 4"><path class="cls-10" d="M-96.06,292.1c.16-15.25,2.19-28.32,4.6-36.52,5.89-20.08,6.92-8.31,8.84-20.88.57-3.77,1.79-11.58,3.65-13,2.23-1.74,7.06.77,14.59,5.41,13.46,8.3,16.62,11.75,22.09,15,14.59,8.69,30.86,7.27,42.51,6.25,15.45-1.35,16.57-5.16,27.34-6.27.38-3.14,1.06-6.93,1.86-12.13,1.58-10.22,2.32-20.55,3.7-30.79,4.52-33.72,3.58-48.27,11.7-68.36,1.57-3.88,6.29-14.95,12.62-15.09a12.11,12.11,0,0,1,7.39,2.77,11.74,11.74,0,0,1,3.08,4c5.35,10.9,3.08,24.63,3.08,24.63s-1.22,7.4-3.69,38.8c-2.35,29.85-1.54,38.72.7,64.8,0,.68.28,1.85.51,3.25a113.67,113.67,0,0,1,23,20.22c5.16,6.19,28.2,33.84,20,65.86-4.14,16.15-14.38,26.22-18.76,30.42-19.42,18.63-43.68,20.66-55.85,21.68-30.46,2.54-53.57-8-75.44-17.93-18.83-8.56-27.95-16.17-32.93-20.84-7.08-6.64-17.23-16.38-22.09-32.09C-96.28,312.49-96.2,305.51-96.06,292.1Z"/><ellipse class="cls-11" cx="60.88" cy="126.9" rx="1.42" ry="1.39"/><ellipse class="cls-11" cx="64.93" cy="126.63" rx="1.42" ry="1.39"/><path class="cls-12" d="M60.91,132.33a5.89,5.89,0,0,1,3.3-2.52,9.8,9.8,0,0,1,3.79-.32,39.39,39.39,0,0,1,9.6,1.85s3.34,1,3.91,2.3a1.12,1.12,0,0,1,.09.74.11.11,0,0,1,0,.07c0,.16-.14.33-.45.5a2.93,2.93,0,0,1-.62.31,5.55,5.55,0,0,1-1.21.27,17.79,17.79,0,0,1-1.86.29c-.45.05-.88.08-1.29.1-3.49.33-11.66.27-13.56-.3a3.1,3.1,0,0,1-2-1.22A2.18,2.18,0,0,1,60.91,132.33Z"/><path class="cls-10" d="M471.06,292.1c-.16-15.25-2.19-28.32-4.6-36.52-5.89-20.08-6.92-8.31-8.84-20.88-.57-3.77-1.79-11.58-3.65-13-2.23-1.74-7.06.77-14.59,5.41-13.46,8.3-16.62,11.75-22.09,15-14.59,8.69-30.86,7.27-42.51,6.25-15.45-1.35-16.57-5.16-27.34-6.27-.38-3.14-1.06-6.93-1.86-12.13-1.58-10.22-2.32-20.55-3.7-30.79-4.52-33.72-3.58-48.27-11.7-68.36-1.57-3.88-6.29-14.95-12.62-15.09a12.11,12.11,0,0,0-7.39,2.77,11.74,11.74,0,0,0-3.08,4c-5.35,10.9-3.08,24.63-3.08,24.63s1.22,7.4,3.69,38.8c2.35,29.85,1.54,38.72-.7,64.8-.05.68-.28,1.85-.51,3.25a113.67,113.67,0,0,0-23,20.22c-5.16,6.19-28.2,33.84-20,65.86,4.14,16.15,14.38,26.22,18.76,30.42,19.42,18.63,43.68,20.66,55.85,21.68,30.46,2.54,53.57-8,75.44-17.93,18.83-8.56,27.95-16.17,32.93-20.84,7.08-6.64,17.23-16.38,22.09-32.09C471.28,312.49,471.2,305.51,471.06,292.1Z"/><ellipse class="cls-11" cx="314.12" cy="126.9" rx="1.42" ry="1.39"/><ellipse class="cls-11" cx="310.07" cy="126.63" rx="1.42" ry="1.39"/><path class="cls-12" d="M314.09,132.33a5.89,5.89,0,0,0-3.3-2.52,9.8,9.8,0,0,0-3.79-.32,39.39,39.39,0,0,0-9.6,1.85s-3.34,1-3.91,2.3a1.12,1.12,0,0,0-.09.74.11.11,0,0,0,0,.07c0,.16.14.33.45.5a2.93,2.93,0,0,0,.62.31,5.55,5.55,0,0,0,1.21.27,17.79,17.79,0,0,0,1.86.29c.45.05.88.08,1.29.1,3.49.33,11.66.27,13.56-.3a3.1,3.1,0,0,0,1.95-1.22A2.18,2.18,0,0,0,314.09,132.33Z"/></g></svg>